<svg width="158" height="158" viewBox="0 0 158 158" fill="none" xmlns="http://www.w3.org/2000/svg">
<path d="M70.7867 109.588H38.52V59H114.787V65.4706C114.787 65.9386 114.972 66.3875 115.302 66.7184C115.632 67.0494 116.08 67.2353 116.547 67.2353C117.013 67.2353 117.461 67.0494 117.791 66.7184C118.121 66.3875 118.307 65.9386 118.307 65.4706V40.7647C118.307 40.2967 118.121 39.8478 117.791 39.5169C117.461 39.1859 117.013 39 116.547 39H36.76C36.2932 39 35.8456 39.1859 35.5155 39.5169C35.1854 39.8478 35 40.2967 35 40.7647V111.353C35 111.821 35.1854 112.27 35.5155 112.601C35.8456 112.932 36.2932 113.118 36.76 113.118H70.7867C71.2534 113.118 71.7011 112.932 72.0312 112.601C72.3612 112.27 72.5467 111.821 72.5467 111.353C72.5467 110.885 72.3612 110.436 72.0312 110.105C71.7011 109.774 71.2534 109.588 70.7867 109.588ZM114.787 42.5294V55.4706H38.52V42.5294H114.787Z" fill="url(#paint0_linear)"/>
<path d="M44.9733 50.7647H50.84C51.3068 50.7647 51.7544 50.5788 52.0845 50.2478C52.4146 49.9169 52.6 49.468 52.6 49C52.6 48.532 52.4146 48.0831 52.0845 47.7522C51.7544 47.4212 51.3068 47.2353 50.84 47.2353H44.9733C44.5066 47.2353 44.0589 47.4212 43.7288 47.7522C43.3988 48.0831 43.2133 48.532 43.2133 49C43.2133 49.468 43.3988 49.9169 43.7288 50.2478C44.0589 50.5788 44.5066 50.7647 44.9733 50.7647Z" fill="url(#paint1_linear)"/>
<path d="M57.88 50.7647H63.7467C64.2134 50.7647 64.6611 50.5788 64.9912 50.2478C65.3212 49.9169 65.5067 49.468 65.5067 49C65.5067 48.532 65.3212 48.0831 64.9912 47.7522C64.6611 47.4212 64.2134 47.2353 63.7467 47.2353H57.88C57.4132 47.2353 56.9656 47.4212 56.6355 47.7522C56.3054 48.0831 56.12 48.532 56.12 49C56.12 49.468 56.3054 49.9169 56.6355 50.2478C56.9656 50.5788 57.4132 50.7647 57.88 50.7647Z" fill="url(#paint2_linear)"/>
<path d="M99.5333 86.0588C97.6768 86.0588 95.862 86.6108 94.3184 87.645C92.7748 88.6792 91.5716 90.1491 90.8612 91.8689C90.1507 93.5886 89.9648 95.481 90.327 97.3067C90.6892 99.1324 91.5832 100.809 92.896 102.126C94.2087 103.442 95.8812 104.338 97.7021 104.702C99.5229 105.065 101.41 104.878 103.125 104.166C104.841 103.454 106.307 102.247 107.338 100.699C108.369 99.1517 108.92 97.3321 108.92 95.4706C108.92 92.9744 107.931 90.5805 106.171 88.8155C104.41 87.0504 102.023 86.0588 99.5333 86.0588ZM99.5333 102.059C98.2338 102.059 96.9634 101.672 95.8829 100.949C94.8023 100.225 93.9601 99.1956 93.4628 97.9918C92.9655 96.788 92.8354 95.4633 93.0889 94.1853C93.3425 92.9073 93.9682 91.7334 94.8872 90.812C95.8061 89.8906 96.9769 89.2632 98.2515 89.0089C99.526 88.7547 100.847 88.8852 102.048 89.3839C103.248 89.8825 104.275 90.7269 104.997 91.8104C105.719 92.8938 106.104 94.1676 106.104 95.4706C106.104 97.2179 105.412 98.8936 104.179 100.129C102.947 101.365 101.276 102.059 99.5333 102.059Z" fill="url(#paint3_linear)"/>
<path d="M121.743 90.108L116.128 89.2516C115.841 88.369 115.486 87.51 115.067 86.6824L118.445 82.0852C118.667 81.7967 118.775 81.436 118.747 81.0725C118.72 80.7091 118.56 80.3685 118.297 80.1164L113.624 75.4307C113.373 75.1675 113.033 75.0067 112.671 74.9795C112.308 74.9522 111.948 75.0604 111.661 75.2831L107.095 78.6595C106.274 78.2607 105.424 77.9251 104.553 77.6555L103.708 72.0444C103.661 71.6912 103.488 71.3671 103.221 71.1319C102.954 70.8967 102.611 70.7663 102.255 70.7647H95.6381C95.2856 70.7656 94.9451 70.8932 94.6785 71.1245C94.4119 71.3557 94.2368 71.6751 94.1851 72.0247L93.3408 77.6555C92.4536 77.9455 91.5903 78.3042 90.7587 78.7285L86.1935 75.352C85.9057 75.1293 85.546 75.0211 85.1835 75.0484C84.821 75.0756 84.4814 75.2364 84.2299 75.4996L79.5567 80.1854C79.2942 80.4374 79.1339 80.778 79.1067 81.1414C79.0795 81.5049 79.1873 81.8656 79.4095 82.1541L82.7868 86.7513C82.3843 87.5578 82.043 88.3937 81.7657 89.2516L76.1304 90.108C75.7852 90.1641 75.4713 90.3415 75.2447 90.6084C75.018 90.8753 74.8935 91.2144 74.8933 91.565V98.1998C74.8942 98.5532 75.0215 98.8946 75.2521 99.162C75.4827 99.4293 75.8013 99.6048 76.15 99.6567L81.8148 100.513C82.1004 101.379 82.4516 102.221 82.8653 103.033L79.4586 107.66C79.2364 107.948 79.1286 108.309 79.1558 108.672C79.183 109.036 79.3433 109.377 79.6058 109.629L84.279 114.314C84.5304 114.578 84.8701 114.738 85.2326 114.766C85.5951 114.793 85.9548 114.685 86.2426 114.462L90.8765 111.036C91.6807 111.443 92.5143 111.789 93.3702 112.07L94.2342 117.779C94.2927 118.114 94.4642 118.417 94.7199 118.64C94.9756 118.862 95.2998 118.989 95.6381 119H102.255C102.608 118.999 102.948 118.871 103.215 118.64C103.481 118.409 103.657 118.09 103.708 117.74L104.572 112.03C105.428 111.749 106.262 111.404 107.066 110.997L111.7 114.423C111.988 114.645 112.347 114.753 112.71 114.726C113.072 114.699 113.412 114.538 113.663 114.275L118.337 109.589C118.599 109.337 118.759 108.997 118.787 108.633C118.814 108.27 118.706 107.909 118.484 107.62L115.077 102.994C115.489 102.195 115.84 101.365 116.128 100.513L121.792 99.6567C122.132 99.5943 122.439 99.4143 122.66 99.148C122.881 98.8817 123.001 98.546 123 98.1998V91.565C122.999 91.2115 122.872 90.8701 122.641 90.6028C122.411 90.3354 122.092 90.1599 121.743 90.108ZM120.055 96.9299L114.724 97.7371C114.442 97.7805 114.179 97.905 113.966 98.0955C113.753 98.2859 113.601 98.5342 113.526 98.8101C113.184 100.075 112.679 101.289 112.024 102.423C111.88 102.671 111.812 102.956 111.828 103.243C111.844 103.53 111.942 103.806 112.112 104.037L115.323 108.398L112.436 111.292L108.067 108.063C107.837 107.893 107.561 107.794 107.275 107.778C106.989 107.763 106.705 107.831 106.457 107.975C105.332 108.624 104.127 109.123 102.874 109.461C102.599 109.536 102.351 109.689 102.161 109.903C101.971 110.116 101.847 110.38 101.804 110.662L100.989 116.047H96.9046L96.0897 110.662C96.0464 110.38 95.9223 110.116 95.7323 109.903C95.5424 109.689 95.2948 109.536 95.0196 109.461C93.766 109.123 92.5614 108.624 91.4361 107.975C91.1882 107.831 90.9039 107.763 90.6179 107.778C90.3319 107.794 90.0567 107.893 89.826 108.063L85.4572 111.292L82.5708 108.398L85.791 104.037C85.9607 103.806 86.0594 103.53 86.0751 103.243C86.0908 102.956 86.0228 102.671 85.8793 102.423C85.2242 101.289 84.7193 100.075 84.3772 98.8101C84.3026 98.5342 84.1497 98.2859 83.9371 98.0955C83.7245 97.905 83.4613 97.7805 83.1795 97.7371L77.8386 96.9299V92.8348L83.15 92.0276C83.4348 91.9853 83.701 91.8601 83.9156 91.6677C84.1303 91.4752 84.2839 91.2239 84.3576 90.9448C84.6959 89.6665 85.2009 88.4385 85.8597 87.2927C86.0031 87.0441 86.0712 86.759 86.0555 86.4723C86.0398 86.1855 85.941 85.9096 85.7713 85.6783L82.5904 81.3568L85.4768 78.4627L89.7769 81.6423C90.0077 81.8124 90.2828 81.9114 90.5688 81.9272C90.8548 81.9429 91.1391 81.8747 91.387 81.7309C92.535 81.0621 93.7665 80.549 95.049 80.205C95.3274 80.1312 95.578 79.9771 95.77 79.7619C95.9619 79.5467 96.0867 79.2798 96.129 78.9942L96.9046 73.7179H100.989L101.784 79.0041C101.826 79.2897 101.951 79.5566 102.143 79.7718C102.335 79.987 102.586 80.141 102.864 80.2149C104.147 80.5589 105.378 81.072 106.526 81.7407C106.773 81.8858 107.058 81.9547 107.344 81.9389C107.63 81.9232 107.906 81.8234 108.136 81.6521L112.436 78.4725L115.323 81.3666L112.142 85.6881C111.972 85.9194 111.873 86.1954 111.857 86.4821C111.842 86.7689 111.91 87.054 112.053 87.3025C112.712 88.4483 113.217 89.6763 113.555 90.9546C113.629 91.2337 113.783 91.485 113.997 91.6775C114.212 91.87 114.478 91.9951 114.763 92.0375L120.074 92.8447L120.055 96.9299Z" fill="url(#paint4_linear)"/>
<defs>
<linearGradient id="paint0_linear" x1="45.2326" y1="39" x2="123.186" y2="118.819" gradientUnits="userSpaceOnUse">
<stop stop-color="#0A2BDA"/>
<stop offset="1" stop-color="#4098FF"/>
</linearGradient>
<linearGradient id="paint1_linear" x1="45.2326" y1="39" x2="123.186" y2="118.819" gradientUnits="userSpaceOnUse">
<stop stop-color="#0A2BDA"/>
<stop offset="1" stop-color="#4098FF"/>
</linearGradient>
<linearGradient id="paint2_linear" x1="45.2326" y1="39" x2="123.186" y2="118.819" gradientUnits="userSpaceOnUse">
<stop stop-color="#0A2BDA"/>
<stop offset="1" stop-color="#4098FF"/>
</linearGradient>
<linearGradient id="paint3_linear" x1="45.2326" y1="39" x2="123.186" y2="118.819" gradientUnits="userSpaceOnUse">
<stop stop-color="#0A2BDA"/>
<stop offset="1" stop-color="#4098FF"/>
</linearGradient>
<linearGradient id="paint4_linear" x1="45.2326" y1="39" x2="123.186" y2="118.819" gradientUnits="userSpaceOnUse">
<stop stop-color="#0A2BDA"/>
<stop offset="1" stop-color="#4098FF"/>
</linearGradient>
</defs>
</svg>
