<svg width="158" height="158" viewBox="0 0 158 158" fill="none" xmlns="http://www.w3.org/2000/svg">
<path d="M42.4571 108.668C42.459 108.679 42.4638 108.69 42.4666 108.701C42.4858 108.792 42.5144 108.881 42.5517 108.966C42.5641 108.995 42.5785 109.022 42.5928 109.049C42.6282 109.118 42.6683 109.181 42.7151 109.244C42.7342 109.27 42.7524 109.295 42.7734 109.32C42.8288 109.385 42.8919 109.444 42.9617 109.498C42.976 109.509 42.9865 109.524 43.0009 109.535C43.0037 109.537 43.0076 109.538 43.0104 109.54C43.0152 109.543 43.019 109.548 43.0238 109.551C43.0993 109.603 43.1815 109.632 43.2627 109.668C43.3095 109.689 43.3526 109.72 43.4013 109.735C43.5389 109.779 43.6803 109.802 43.8218 109.802H43.8256C43.9785 109.802 44.1276 109.768 44.2719 109.718C44.2901 109.712 44.3101 109.714 44.3293 109.708L64.9211 101.696C65.419 101.502 65.7601 101.042 65.8003 100.511L66.5189 90.8215C66.5237 90.8148 66.5314 90.812 66.5362 90.8053L100.883 41.7047C101.094 41.4043 101.175 41.0317 101.109 40.6715C101.045 40.3112 100.838 39.9909 100.535 39.7809L89.6337 32.2463C89.0049 31.8129 88.141 31.9659 87.7014 32.5923L53.367 81.691C53.3584 81.7043 53.3527 81.7186 53.345 81.7309L44.7459 85.8067C44.2939 86.0205 43.9929 86.4597 43.9584 86.9558L42.438 108.324C42.437 108.333 42.4399 108.342 42.4399 108.351C42.4342 108.458 42.438 108.563 42.4571 108.668ZM89.1884 35.3021L97.8095 41.2617L65.0491 88.0945L56.4405 82.1339L89.1884 35.3021ZM54.5731 84.2079L63.7523 90.562L63.0938 99.4406L47.6139 105.463L52.9609 97.9074C53.4014 97.2839 53.2514 96.4227 52.6245 95.9836C51.9966 95.5445 51.1308 95.6937 50.6892 96.3191L45.5611 103.566L46.6726 87.9529L54.5731 84.2079Z" fill="url(#paint0_linear)"/>
<path d="M121.611 114.238H36.3886C35.6212 114.238 35 114.856 35 115.619C35 116.382 35.6212 117 36.3886 117H121.611C122.379 117 123 116.382 123 115.619C123 114.856 122.379 114.238 121.611 114.238Z" fill="url(#paint1_linear)"/>
<path d="M101.679 97.6051C102.375 101.017 101.422 103.129 100.884 103.24C100.679 103.277 100.182 103.057 99.5861 102.279C98.8579 101.33 98.2615 99.9015 97.949 98.3598C97.9442 98.338 97.9385 98.3152 97.9328 98.2943C96.9886 93.8155 94.3251 90.8414 91.7458 91.3633C89.4053 91.8356 88.1439 94.9609 88.5701 98.8741C88.5577 99.0062 88.5577 99.1412 88.5854 99.278C89.4254 103.414 88.3837 106.481 87.3277 106.696C86.8308 106.797 86.0701 106.277 85.3772 105.373C84.4569 104.173 83.699 102.386 83.291 100.458C83.2881 100.44 83.2843 100.422 83.2804 100.403C82.1719 94.9381 79.022 91.2796 75.9457 91.8984C72.8875 92.5172 71.4148 97.1052 72.5196 102.568C72.6706 103.316 73.4017 103.8 74.1548 103.65C74.9069 103.5 75.3933 102.771 75.2423 102.024C74.4061 97.8865 75.4459 94.8192 76.4971 94.6063C77.5474 94.3811 79.6814 96.7735 80.5367 100.843C80.5396 100.863 80.5434 100.882 80.5472 100.901C81.0375 103.301 81.9683 105.484 83.1686 107.049C84.3833 108.633 85.7872 109.473 87.1863 109.473C87.4175 109.473 87.6498 109.45 87.881 109.404C90.6907 108.835 92.1567 104.924 91.5241 100.063C91.5307 99.9462 91.5288 99.8284 91.504 99.7086C90.8111 96.2916 91.7591 94.1815 92.2972 94.0722C92.8438 93.9476 94.5392 95.5397 95.234 98.952C95.2378 98.9729 95.2435 98.9938 95.2483 99.0147C95.6535 100.939 96.4075 102.69 97.3785 103.955C98.4068 105.297 99.61 106.008 100.823 106.008C101.028 106.008 101.234 105.989 101.439 105.948C104.041 105.417 105.313 101.628 104.413 97.1185C104.411 97.1109 104.412 97.1033 104.411 97.0957C104.048 95.3268 104.386 94.1007 104.634 93.7547C105 93.9724 105.776 94.9495 106.144 96.7487C106.152 96.7915 106.164 96.8334 106.175 96.8742C106.472 98.2325 107.011 99.47 107.703 100.375C108.489 101.404 109.461 101.963 110.432 101.963C110.598 101.963 110.765 101.947 110.93 101.914C113.012 101.493 114.016 98.6982 113.314 95.2707C113.162 94.5217 112.421 94.0427 111.677 94.1919C110.925 94.344 110.44 95.073 110.593 95.8201C110.955 97.5937 110.615 98.8199 110.369 99.163C110.003 98.9434 109.229 97.9635 108.865 96.168C108.855 96.1243 108.845 96.0815 108.832 96.0397C108.101 92.7016 106.117 90.5829 104.066 91.0049C102 91.4279 101.001 94.1929 101.68 97.589C101.679 97.5937 101.678 97.5994 101.679 97.6051Z" fill="url(#paint2_linear)"/>
<defs>
<linearGradient id="paint0_linear" x1="45.2326" y1="32" x2="128.024" y2="111.786" gradientUnits="userSpaceOnUse">
<stop stop-color="#0A2BDA"/>
<stop offset="1" stop-color="#4098FF"/>
</linearGradient>
<linearGradient id="paint1_linear" x1="45.2326" y1="32" x2="128.024" y2="111.786" gradientUnits="userSpaceOnUse">
<stop stop-color="#0A2BDA"/>
<stop offset="1" stop-color="#4098FF"/>
</linearGradient>
<linearGradient id="paint2_linear" x1="45.2326" y1="32" x2="128.024" y2="111.786" gradientUnits="userSpaceOnUse">
<stop stop-color="#0A2BDA"/>
<stop offset="1" stop-color="#4098FF"/>
</linearGradient>
</defs>
</svg>
