<svg width="158" height="158" viewBox="0 0 158 158" fill="none" xmlns="http://www.w3.org/2000/svg">
<path d="M119.63 81.3586H108.166V70.4835H114.781V74.0844C114.781 74.9173 115.394 75.5915 116.151 75.5915C116.907 75.5915 117.521 74.9173 117.521 74.0844V63.8655C117.521 63.0326 116.907 62.3584 116.151 62.3584C115.394 62.3584 114.781 63.0326 114.781 63.8655V67.4694H108.166V56.2065C108.166 56.1111 108.156 56.0176 108.14 55.9272C108.138 55.9192 108.139 55.9111 108.137 55.9021C108.114 55.7765 108.072 55.659 108.022 55.5474C108.007 55.5123 107.989 55.4781 107.971 55.4439C107.917 55.3445 107.857 55.251 107.785 55.1677C107.776 55.1576 107.771 55.1445 107.762 55.1345L89.7989 35.4401L89.797 35.4391C89.7121 35.3456 89.6125 35.2703 89.5075 35.204C89.4828 35.1889 89.4591 35.1738 89.4344 35.1597C89.3294 35.1025 89.2189 35.0563 89.101 35.0301C89.0919 35.0281 89.0818 35.0291 89.0727 35.0271C88.9942 35.0121 88.9147 35 88.8316 35H55.2081C54.4509 35 53.838 35.6742 53.838 36.5071V67.4684H47.2267V63.8645C47.2267 63.0316 46.6138 62.3574 45.8566 62.3574C45.0994 62.3574 44.4865 63.0316 44.4865 63.8645V74.0834C44.4865 74.9163 45.0994 75.5905 45.8566 75.5905C46.6138 75.5905 47.2267 74.9163 47.2267 74.0834V70.4825H53.838V81.3576H42.3701C41.6129 81.3576 41 82.0327 41 82.8646V121.493C41 122.325 41.6129 123 42.3701 123H119.63C120.386 123 121 122.325 121 121.493V82.8656C121 82.0337 120.386 81.3586 119.63 81.3586ZM90.2017 40.1381L103.48 54.6954H90.2017V40.1381ZM56.5782 38.0152H87.4615V56.2025C87.4615 57.0354 88.0753 57.7096 88.8316 57.7096H105.425V81.3586H56.5782V38.0152ZM118.26 119.987H43.7402V84.3727H118.26V119.987Z" fill="url(#paint0_linear)"/>
<path d="M98.5612 97.002H105.583C106.34 97.002 106.954 96.3268 106.954 95.4949C106.954 94.663 106.34 93.9878 105.583 93.9878H98.5612C97.8049 93.9878 97.1911 94.663 97.1911 95.4949C97.1911 96.3268 97.804 97.002 98.5612 97.002Z" fill="url(#paint1_linear)"/>
<path d="M56.4256 97.002H63.4461C64.2033 97.002 64.8162 96.3268 64.8162 95.4949C64.8162 94.663 64.2033 93.9878 63.4461 93.9878H56.4256C55.6684 93.9878 55.0555 94.663 55.0555 95.4949C55.0555 96.3268 55.6693 97.002 56.4256 97.002Z" fill="url(#paint2_linear)"/>
<path d="M70.4702 97.002H77.498C78.2552 97.002 78.8681 96.3268 78.8681 95.4949C78.8681 94.663 78.2552 93.9878 77.498 93.9878H70.4702C69.713 93.9878 69.1001 94.663 69.1001 95.4949C69.1001 96.3268 69.7139 97.002 70.4702 97.002Z" fill="url(#paint3_linear)"/>
<path d="M84.5093 97.002H91.5416C92.298 97.002 92.9118 96.3268 92.9118 95.4949C92.9118 94.663 92.298 93.9878 91.5416 93.9878H84.5093C83.753 93.9878 83.1392 94.663 83.1392 95.4949C83.1392 96.3268 83.753 97.002 84.5093 97.002Z" fill="url(#paint4_linear)"/>
<path d="M70.4702 108.286H63.4461C62.6889 108.286 62.076 108.961 62.076 109.793C62.076 110.625 62.6889 111.3 63.4461 111.3H70.4702C71.2274 111.3 71.8403 110.625 71.8403 109.793C71.8403 108.961 71.2274 108.286 70.4702 108.286Z" fill="url(#paint5_linear)"/>
<path d="M84.513 108.286H77.4907C76.7335 108.286 76.1206 108.961 76.1206 109.793C76.1206 110.625 76.7335 111.3 77.4907 111.3H84.513C85.2693 111.3 85.8831 110.625 85.8831 109.793C85.8831 108.961 85.2693 108.286 84.513 108.286Z" fill="url(#paint6_linear)"/>
<path d="M98.5612 108.286H91.5353C90.779 108.286 90.1651 108.961 90.1651 109.793C90.1651 110.625 90.779 111.3 91.5353 111.3H98.5612C99.3175 111.3 99.9313 110.625 99.9313 109.793C99.9313 108.961 99.3175 108.286 98.5612 108.286Z" fill="url(#paint7_linear)"/>
<defs>
<linearGradient id="paint0_linear" x1="50.3023" y1="35" x2="134.893" y2="106.582" gradientUnits="userSpaceOnUse">
<stop stop-color="#0A2BDA"/>
<stop offset="1" stop-color="#4098FF"/>
</linearGradient>
<linearGradient id="paint1_linear" x1="50.3023" y1="35" x2="134.893" y2="106.582" gradientUnits="userSpaceOnUse">
<stop stop-color="#0A2BDA"/>
<stop offset="1" stop-color="#4098FF"/>
</linearGradient>
<linearGradient id="paint2_linear" x1="50.3023" y1="35" x2="134.893" y2="106.582" gradientUnits="userSpaceOnUse">
<stop stop-color="#0A2BDA"/>
<stop offset="1" stop-color="#4098FF"/>
</linearGradient>
<linearGradient id="paint3_linear" x1="50.3023" y1="35" x2="134.893" y2="106.582" gradientUnits="userSpaceOnUse">
<stop stop-color="#0A2BDA"/>
<stop offset="1" stop-color="#4098FF"/>
</linearGradient>
<linearGradient id="paint4_linear" x1="50.3023" y1="35" x2="134.893" y2="106.582" gradientUnits="userSpaceOnUse">
<stop stop-color="#0A2BDA"/>
<stop offset="1" stop-color="#4098FF"/>
</linearGradient>
<linearGradient id="paint5_linear" x1="50.3023" y1="35" x2="134.893" y2="106.582" gradientUnits="userSpaceOnUse">
<stop stop-color="#0A2BDA"/>
<stop offset="1" stop-color="#4098FF"/>
</linearGradient>
<linearGradient id="paint6_linear" x1="50.3023" y1="35" x2="134.893" y2="106.582" gradientUnits="userSpaceOnUse">
<stop stop-color="#0A2BDA"/>
<stop offset="1" stop-color="#4098FF"/>
</linearGradient>
<linearGradient id="paint7_linear" x1="50.3023" y1="35" x2="134.893" y2="106.582" gradientUnits="userSpaceOnUse">
<stop stop-color="#0A2BDA"/>
<stop offset="1" stop-color="#4098FF"/>
</linearGradient>
</defs>
</svg>
