<svg width="158" height="158" viewBox="0 0 158 158" fill="none" xmlns="http://www.w3.org/2000/svg">
<path d="M120.895 69.7459C119.729 69.7459 118.015 70.2177 116.467 72.4638C116.4 72.5614 116.343 72.6655 116.299 72.775C115.455 74.8519 113.726 76.1371 112.608 76.1371C111.686 76.1371 110.629 75.0601 109.809 73.3054V49.4565C109.809 48.5574 109.084 47.8297 108.191 47.8297H84.6361C82.719 46.9914 81.5408 45.8808 81.5408 44.8939C81.5408 43.9699 82.6121 42.9092 84.3588 42.0839C84.5433 42.0459 84.7246 41.9754 84.8918 41.8702C86.9017 40.6089 88.0086 38.93 88.0086 37.1427C88.0086 33.0714 82.3748 30 74.9047 30C67.4379 30 61.8062 33.0714 61.8062 37.1427C61.8062 38.2522 62.227 39.8378 64.1323 41.3193C64.3103 41.6056 64.5746 41.8333 64.8929 41.9635C66.9794 42.8192 68.274 43.9905 68.274 45.0197C68.274 45.9459 67.2016 47.0065 65.4517 47.8297H41.6228C40.7295 47.8297 40.0045 48.5574 40.0045 49.4565V73.6383C39.9851 73.8964 40.0283 74.16 40.134 74.4051C41.5538 77.6858 43.6489 79.4926 46.0343 79.4926C48.3905 79.4926 50.5202 77.6511 51.9206 74.4224C51.9303 74.4094 51.9389 74.3964 51.9476 74.3823C52.5593 73.4333 53.2454 72.89 53.8313 72.89C55.4086 72.89 57.7001 76.7531 57.7001 82.8069C57.7001 88.8619 55.4086 92.725 53.8313 92.725C53.2746 92.725 52.624 92.2304 52.0296 91.3606C50.6119 88.1125 48.5276 86.3252 46.1573 86.3252C43.7169 86.3252 41.516 88.3012 40.12 91.7467C40.025 91.981 39.9873 92.2272 40.0045 92.469V116.373C40.0045 117.272 40.7295 118 41.6228 118H65.7991C66.0214 118 66.2404 117.954 66.4454 117.864C69.7111 116.436 71.5106 114.33 71.5106 111.935C71.5106 109.608 69.7391 107.497 66.6288 106.088C66.5705 106.035 66.509 105.986 66.4421 105.941C65.9178 105.588 65.0385 104.879 65.0385 104.101C65.0385 102.515 68.8814 100.213 74.9047 100.213C80.9248 100.213 84.7677 102.516 84.7677 104.101C84.7677 104.634 84.3308 105.246 83.5529 105.813C83.4893 105.832 83.4278 105.854 83.3663 105.881C80.1016 107.308 78.3042 109.414 78.3042 111.809C78.3042 114.298 80.2203 116.455 83.6996 117.879C83.8938 117.958 84.0999 117.999 84.3092 117.999H108.191C109.084 117.999 109.809 117.271 109.809 116.372V92.5883C110.645 90.6611 111.75 89.4768 112.73 89.4768C113.552 89.4768 115.19 90.6416 116.163 92.8291C116.206 92.9462 116.262 93.059 116.331 93.1642C117.567 95.0481 119.188 96.0859 120.895 96.0859C124.946 96.0859 128 90.4236 128 82.9154C128 75.4072 124.945 69.7459 120.895 69.7459ZM120.895 92.8324C120.345 92.8324 119.701 92.3465 119.113 91.494C117.728 88.3847 115.117 86.2243 112.73 86.2243C110.288 86.2243 108.087 88.2014 106.691 91.648C106.613 91.8433 106.573 92.0515 106.573 92.2608V114.746H84.6361C82.719 113.906 81.5408 112.794 81.5408 111.811C81.5408 110.903 82.5733 109.864 84.2617 109.047C84.4883 109.018 84.7127 108.94 84.9166 108.811C86.9082 107.553 88.0032 105.88 88.0032 104.102C88.0032 100.03 82.3716 96.9601 74.9037 96.9601C67.4336 96.9601 61.8008 100.03 61.8008 104.102C61.8008 105.221 62.2291 106.83 64.1905 108.324C64.3664 108.57 64.6102 108.764 64.8929 108.881C66.9783 109.736 68.2729 110.906 68.2729 111.936C68.2729 112.86 67.1995 113.922 65.4506 114.746H43.24V92.6805C44.0751 90.7598 45.1788 89.5798 46.1562 89.5798C47.0981 89.5798 48.1823 90.7099 49.0098 92.5428C49.053 92.6892 49.1166 92.8302 49.2008 92.9614C50.4501 94.9071 52.0943 95.9797 53.8313 95.9797C57.8824 95.9797 60.9367 90.3173 60.9367 82.808C60.9367 75.2998 57.8824 69.6375 53.8313 69.6375C52.2086 69.6375 50.6691 70.5691 49.4619 72.2718C49.2946 72.4301 49.1598 72.6243 49.0691 72.8466C48.2222 74.9408 47.0592 76.2412 46.0343 76.2412C45.114 76.2412 44.06 75.1675 43.2411 73.4171V51.0855H65.7991C66.0203 51.0855 66.2404 51.0399 66.4443 50.951C69.7111 49.5259 71.5106 47.4198 71.5106 45.0219C71.5106 42.7237 69.7801 40.6349 66.7345 39.2229C66.6579 39.1437 66.5716 39.0721 66.4777 39.0092C65.565 38.3997 65.0428 37.7208 65.0428 37.1438C65.0428 35.5582 68.8847 33.2547 74.9047 33.2547C80.928 33.2547 84.772 35.5582 84.772 37.1438C84.772 37.7023 84.2941 38.3444 83.4472 38.9333C83.4202 38.9441 83.3922 38.955 83.3652 38.9669C80.1016 40.3952 78.3042 42.5014 78.3042 44.895C78.3042 47.3514 80.271 49.5639 83.7007 50.964C83.8938 51.0432 84.101 51.0833 84.3092 51.0833H106.573V73.6546C106.573 73.878 106.618 74.0992 106.708 74.3042C108.126 77.5838 110.222 79.3896 112.608 79.3896C115.206 79.3896 117.901 77.2596 119.219 74.1871C119.581 73.6915 120.21 72.9984 120.896 72.9984C122.473 72.9984 124.764 76.8615 124.764 82.9154C124.764 88.9693 122.471 92.8324 120.895 92.8324Z" fill="url(#paint0_linear)"/>
<defs>
<linearGradient id="paint0_linear" x1="50.2326" y1="30" x2="135.785" y2="109.636" gradientUnits="userSpaceOnUse">
<stop stop-color="#0A2BDA"/>
<stop offset="1" stop-color="#4098FF"/>
</linearGradient>
</defs>
</svg>
