<svg width="158" height="158" viewBox="0 0 158 158" fill="none" xmlns="http://www.w3.org/2000/svg">
<path d="M122.56 51.0214L106.978 35.4402C106.391 34.8533 105.441 34.8533 104.854 35.4402L77.1318 63.1607L60.3965 46.6951C60.3834 46.6821 60.3664 46.6731 60.3524 46.661C60.2973 46.611 60.2382 46.5659 60.1751 46.5238C60.145 46.5038 60.117 46.4817 60.0859 46.4637C60.0118 46.4216 59.9327 46.3886 59.8505 46.3585C59.8295 46.3515 59.8115 46.3385 59.7904 46.3315L37.1241 39.2496C36.5932 39.0843 36.0092 39.2266 35.6135 39.6212C35.2179 40.0169 35.0746 40.5989 35.2419 41.1318L42.3249 63.7968C42.368 63.934 42.4341 64.0602 42.5132 64.1784C42.5383 64.2165 42.5683 64.2475 42.5964 64.2826C42.6334 64.3287 42.6635 64.3787 42.7055 64.4198L59.4238 80.8684L35.4402 104.853C34.8533 105.44 34.8533 106.39 35.4402 106.977L51.0226 122.56C51.3041 122.842 51.6867 123 52.0854 123C52.4841 123 52.8657 122.842 53.1482 122.56L77.3792 98.3296L96.9844 117.383C97.2348 117.624 97.5493 117.741 97.8709 117.776C100.145 119.885 103.078 121.052 106.197 121.052C109.474 121.052 112.557 119.776 114.874 117.458C119.595 112.737 119.648 105.099 115.051 100.301C114.978 100.052 114.848 99.8211 114.657 99.6378L94.995 80.7131L122.561 53.1469C123.147 52.5589 123.147 51.6083 122.56 51.0214ZM57.4845 48.7606L56.3616 52.577L51.1268 54.1165C50.637 54.2608 50.2533 54.6434 50.1091 55.1342L48.5705 60.368L44.753 61.4909L38.9662 42.9739L57.4845 48.7606ZM52.0844 119.373L38.6266 105.914L44.2882 100.253L51.0166 106.981C51.3101 107.275 51.6947 107.421 52.0794 107.421C52.464 107.421 52.8487 107.275 53.1422 106.981C53.7292 106.394 53.7292 105.444 53.1422 104.857L46.4138 98.1283L51.9271 92.6151L58.6555 99.3433C58.949 99.6368 59.3337 99.7831 59.7183 99.7831C60.103 99.7831 60.4876 99.6368 60.7811 99.3433C61.3681 98.7564 61.3681 97.8058 60.7811 97.2188L54.0527 90.4905L61.5745 82.9689L75.2245 96.2351L52.0844 119.373ZM112.746 115.332C109.383 118.693 104.063 118.922 100.429 116.028L113.443 103.014C116.337 106.65 116.108 111.972 112.746 115.332ZM98.0151 114.194L62.513 79.6914L46.6342 64.0692L50.2052 63.0195C50.6951 62.8752 51.0787 62.4926 51.2229 62.0018L52.7625 56.768L57.9974 55.2284C58.4872 55.0842 58.8709 54.7015 59.0151 54.2107L60.0789 50.5956L91.7786 81.7839L111.471 100.74L98.0151 114.194ZM92.8403 78.6176L79.2734 65.2682L86.9854 57.5563L93.7138 64.2846C94.0073 64.5781 94.392 64.7243 94.7766 64.7243C95.1613 64.7243 95.5459 64.5781 95.8394 64.2846C96.4264 63.6986 96.4264 62.746 95.8394 62.16L89.111 55.4317L95.3756 49.1672L102.104 55.8955C102.398 56.189 102.782 56.3353 103.167 56.3353C103.551 56.3353 103.936 56.189 104.23 55.8955C104.817 55.3095 104.817 54.3569 104.23 53.771L97.5012 47.0427L105.917 38.6266L119.373 52.0841L92.8403 78.6176Z" fill="url(#paint0_linear)"/>
<defs>
<linearGradient id="paint0_linear" x1="45.2326" y1="35" x2="130.785" y2="114.636" gradientUnits="userSpaceOnUse">
<stop stop-color="#0A2BDA"/>
<stop offset="1" stop-color="#4098FF"/>
</linearGradient>
</defs>
</svg>
