<svg width="27" height="30" viewBox="0 0 27 30" fill="none" xmlns="http://www.w3.org/2000/svg">
<path d="M24.7912 2.18544C21.8461 -0.728481 17.0545 -0.728481 14.1093 2.18544L2.86255 13.313C2.51546 13.6564 2.51546 14.2127 2.86255 14.5562C3.20965 14.8996 3.77195 14.8996 4.11905 14.5562L15.3658 3.42863C17.549 1.27027 21.3514 1.27027 23.5346 3.42863C25.7864 5.65654 25.7864 9.2822 23.5346 11.5101L7.8301 27.2232C6.48684 28.5522 4.14653 28.5522 2.80333 27.2232C1.41755 25.8521 1.41755 23.6216 2.80333 22.2505L17.8797 7.15812C18.3829 6.66019 19.2611 6.66019 19.7644 7.15812C20.2841 7.67234 20.2841 8.50946 19.7644 9.02374L5.31716 23.4936C5.0175 23.7901 5.0175 24.4403 5.31716 24.7368C5.66425 25.0802 6.22656 25.0802 6.57366 24.7368L21.0208 10.2669C22.234 9.06657 22.234 7.11517 21.0208 5.91493C19.8459 4.75249 17.7963 4.75419 16.6232 5.91493L1.54683 21.0073C-0.515611 23.0479 -0.515611 26.4257 1.54683 28.4663C2.5543 29.4631 3.89318 30 5.3171 30C6.74102 30 8.08001 29.4631 9.08659 28.4664L24.7911 12.7532C27.7363 9.83931 27.7363 5.09931 24.7912 2.18544Z" fill="white"/>
</svg>
